<svg width="182" height="30" viewBox="0 0 182 30" fill="none" xmlns="http://www.w3.org/2000/svg">
<path d="M2.21729e-05 23.2727V-2.28882e-05H15.4091V4.0568H4.92048V9.60225H14.3864V13.6591H4.92048V23.2727H2.21729e-05ZM64.3097 23.5568C62.9839 23.5568 61.7832 23.2159 60.7074 22.5341C59.6392 21.8447 58.7907 20.8333 58.162 19.5C57.5407 18.1591 57.2301 16.5151 57.2301 14.5682C57.2301 12.5682 57.5521 10.9053 58.196 9.57952C58.84 8.24619 59.696 7.24998 60.7642 6.59089C61.84 5.92422 63.018 5.59089 64.2983 5.59089C65.2756 5.59089 66.09 5.75755 66.7415 6.09089C67.4006 6.41664 67.9309 6.82574 68.3324 7.31816C68.7415 7.80301 69.0521 8.28028 69.2642 8.74998H69.412V-2.28882e-05H74.2415V23.2727H69.4688V20.4773H69.2642C69.037 20.9621 68.715 21.4432 68.2983 21.9204C67.8892 22.3901 67.3551 22.7803 66.696 23.0909C66.0445 23.4015 65.2491 23.5568 64.3097 23.5568ZM65.8438 19.7045C66.6241 19.7045 67.2832 19.4924 67.821 19.0682C68.3665 18.6363 68.7832 18.0341 69.071 17.2613C69.3665 16.4886 69.5142 15.5833 69.5142 14.5454C69.5142 13.5076 69.3703 12.606 69.0824 11.8409C68.7945 11.0757 68.3779 10.4848 67.8324 10.0682C67.287 9.65149 66.6241 9.44316 65.8438 9.44316C65.0483 9.44316 64.3779 9.65907 63.8324 10.0909C63.287 10.5227 62.8741 11.1212 62.5938 11.8863C62.3135 12.6515 62.1733 13.5379 62.1733 14.5454C62.1733 15.5606 62.3135 16.4583 62.5938 17.2386C62.8817 18.0113 63.2945 18.6174 63.8324 19.0568C64.3779 19.4886 65.0483 19.7045 65.8438 19.7045ZM81.2102 29.8182C80.5966 29.8182 80.0209 29.7689 79.483 29.6704C78.9527 29.5795 78.5133 29.4621 78.1648 29.3182L79.2557 25.7045C79.8239 25.8788 80.3352 25.9735 80.7898 25.9886C81.2519 26.0038 81.6496 25.8977 81.983 25.6704C82.3239 25.4432 82.6004 25.0568 82.8125 24.5113L83.0966 23.7727L76.8352 5.81816H81.9262L85.5398 18.6363H85.7216L89.3693 5.81816H94.4943L87.7102 25.1591C87.3845 26.0985 86.9413 26.9166 86.3807 27.6136C85.8277 28.3182 85.1269 28.8598 84.2784 29.2386C83.4299 29.625 82.4072 29.8182 81.2102 29.8182ZM104.219 23.2727V20.3523L115.832 4.0568H104.196V-2.28882e-05H122.014V2.92043L110.389 19.2159H122.037V23.2727H104.219ZM150.188 13.1818V23.2727H145.347V5.81816H149.96V8.89771H150.165C150.551 7.88255 151.199 7.07952 152.108 6.48861C153.017 5.89013 154.119 5.59089 155.415 5.59089C156.627 5.59089 157.684 5.85604 158.585 6.38634C159.487 6.91664 160.188 7.67422 160.688 8.65907C161.188 9.63634 161.438 10.803 161.438 12.1591V23.2727H156.597V13.0227C156.604 11.9545 156.331 11.1212 155.778 10.5227C155.225 9.91664 154.464 9.61361 153.494 9.61361C152.843 9.61361 152.267 9.75377 151.767 10.0341C151.275 10.3144 150.888 10.7235 150.608 11.2613C150.335 11.7916 150.195 12.4318 150.188 13.1818ZM173.207 23.6136C171.412 23.6136 169.866 23.25 168.571 22.5227C167.283 21.7879 166.291 20.75 165.594 19.4091C164.897 18.0606 164.548 16.4659 164.548 14.625C164.548 12.8295 164.897 11.2538 165.594 9.89771C166.291 8.54164 167.272 7.48483 168.537 6.72725C169.81 5.96967 171.302 5.59089 173.014 5.59089C174.166 5.59089 175.238 5.77649 176.23 6.14771C177.23 6.51134 178.101 7.06058 178.844 7.79543C179.594 8.53028 180.177 9.45452 180.594 10.5682C181.01 11.6742 181.219 12.9697 181.219 14.4545V15.7841H166.48V12.7841H176.662C176.662 12.0871 176.51 11.4697 176.207 10.9318C175.904 10.3939 175.484 9.97346 174.946 9.67043C174.416 9.35983 173.798 9.20452 173.094 9.20452C172.359 9.20452 171.707 9.37498 171.139 9.71589C170.579 10.0492 170.139 10.5 169.821 11.0682C169.503 11.6288 169.34 12.2538 169.332 12.9432V15.7954C169.332 16.6591 169.491 17.4053 169.81 18.0341C170.135 18.6629 170.594 19.1477 171.185 19.4886C171.776 19.8295 172.476 20 173.287 20C173.825 20 174.317 19.9242 174.764 19.7727C175.211 19.6212 175.594 19.3939 175.912 19.0909C176.23 18.7879 176.473 18.4166 176.639 17.9773L181.117 18.2727C180.889 19.3485 180.423 20.2879 179.719 21.0909C179.022 21.8863 178.12 22.5076 177.014 22.9545C175.916 23.3939 174.647 23.6136 173.207 23.6136Z" fill="white"/>
<path d="M26.5142 23.6136C24.7491 23.6136 23.2226 23.2386 21.9347 22.4886C20.6544 21.731 19.6657 20.678 18.9688 19.3295C18.2718 17.9735 17.9233 16.4015 17.9233 14.6136C17.9233 12.8106 18.2718 11.2348 18.9688 9.88634C19.6657 8.53028 20.6544 7.47725 21.9347 6.72725C23.2226 5.96967 24.7491 5.59089 26.5142 5.59089C28.2794 5.59089 29.8021 5.96967 31.0824 6.72725C32.3703 7.47725 33.3627 8.53028 34.0597 9.88634C34.7567 11.2348 35.1051 12.8106 35.1051 14.6136C35.1051 16.4015 34.7567 17.9735 34.0597 19.3295C33.3627 20.678 32.3703 21.731 31.0824 22.4886C29.8021 23.2386 28.2794 23.6136 26.5142 23.6136ZM26.537 19.8636C27.34 19.8636 28.0104 19.6363 28.5483 19.1818C29.0862 18.7197 29.4915 18.0909 29.7642 17.2954C30.0445 16.5 30.1847 15.5947 30.1847 14.5795C30.1847 13.5644 30.0445 12.6591 29.7642 11.8636C29.4915 11.0682 29.0862 10.4394 28.5483 9.97725C28.0104 9.51513 27.34 9.28407 26.537 9.28407C25.7263 9.28407 25.0445 9.51513 24.4915 9.97725C23.946 10.4394 23.5332 11.0682 23.2529 11.8636C22.9801 12.6591 22.8438 13.5644 22.8438 14.5795C22.8438 15.5947 22.9801 16.5 23.2529 17.2954C23.5332 18.0909 23.946 18.7197 24.4915 19.1818C25.0445 19.6363 25.7263 19.8636 26.537 19.8636ZM46.1392 23.6136C44.3741 23.6136 42.8476 23.2386 41.5597 22.4886C40.2794 21.731 39.2907 20.678 38.5938 19.3295C37.8968 17.9735 37.5483 16.4015 37.5483 14.6136C37.5483 12.8106 37.8968 11.2348 38.5938 9.88634C39.2907 8.53028 40.2794 7.47725 41.5597 6.72725C42.8476 5.96967 44.3741 5.59089 46.1392 5.59089C47.9044 5.59089 49.4271 5.96967 50.7074 6.72725C51.9953 7.47725 52.9877 8.53028 53.6847 9.88634C54.3817 11.2348 54.7301 12.8106 54.7301 14.6136C54.7301 16.4015 54.3817 17.9735 53.6847 19.3295C52.9877 20.678 51.9953 21.731 50.7074 22.4886C49.4271 23.2386 47.9044 23.6136 46.1392 23.6136ZM46.162 19.8636C46.965 19.8636 47.6354 19.6363 48.1733 19.1818C48.7112 18.7197 49.1165 18.0909 49.3892 17.2954C49.6695 16.5 49.8097 15.5947 49.8097 14.5795C49.8097 13.5644 49.6695 12.6591 49.3892 11.8636C49.1165 11.0682 48.7112 10.4394 48.1733 9.97725C47.6354 9.51513 46.965 9.28407 46.162 9.28407C45.3513 9.28407 44.6695 9.51513 44.1165 9.97725C43.571 10.4394 43.1582 11.0682 42.8779 11.8636C42.6051 12.6591 42.4688 13.5644 42.4688 14.5795C42.4688 15.5947 42.6051 16.5 42.8779 17.2954C43.1582 18.0909 43.571 18.7197 44.1165 19.1818C44.6695 19.6363 45.3513 19.8636 46.162 19.8636Z" fill="#FF0A0A"/>
<path d="M133.608 23.6136C131.843 23.6136 130.316 23.2386 129.028 22.4886C127.748 21.731 126.759 20.678 126.063 19.3295C125.366 17.9735 125.017 16.4015 125.017 14.6136C125.017 12.8106 125.366 11.2348 126.063 9.88634C126.759 8.53028 127.748 7.47725 129.028 6.72725C130.316 5.96967 131.843 5.59089 133.608 5.59089C135.373 5.59089 136.896 5.96967 138.176 6.72725C139.464 7.47725 140.456 8.53028 141.153 9.88634C141.85 11.2348 142.199 12.8106 142.199 14.6136C142.199 16.4015 141.85 17.9735 141.153 19.3295C140.456 20.678 139.464 21.731 138.176 22.4886C136.896 23.2386 135.373 23.6136 133.608 23.6136ZM133.631 19.8636C134.434 19.8636 135.104 19.6363 135.642 19.1818C136.18 18.7197 136.585 18.0909 136.858 17.2954C137.138 16.5 137.278 15.5947 137.278 14.5795C137.278 13.5644 137.138 12.6591 136.858 11.8636C136.585 11.0682 136.18 10.4394 135.642 9.97725C135.104 9.51513 134.434 9.28407 133.631 9.28407C132.82 9.28407 132.138 9.51513 131.585 9.97725C131.04 10.4394 130.627 11.0682 130.347 11.8636C130.074 12.6591 129.938 13.5644 129.938 14.5795C129.938 15.5947 130.074 16.5 130.347 17.2954C130.627 18.0909 131.04 18.7197 131.585 19.1818C132.138 19.6363 132.82 19.8636 133.631 19.8636Z" fill="#FF0909"/>
</svg>
